<svg xmlns="http://www.w3.org/2000/svg">
 <defs>
    <symbol id="close" viewBox="0 0 14 14">
        <path d="M11.5578 0.257775C11.3609 0.0608863 11.0411 0.0627676 10.8465 0.261958L7.00004 4.20004L3.15354 0.261959C2.95898 0.0627681 2.63919 0.0608865 2.4423 0.257775L0.257775 2.4423C0.0608863 2.63919 0.0627675 2.95898 0.261958 3.15354L4.20004 7.00004L0.261959 10.8465C0.062768 11.0411 0.0608864 11.3609 0.257775 11.5578L2.4423 13.7423C2.63919 13.9392 2.95898 13.9373 3.15354 13.7381L7.00004 9.80004L10.8465 13.7381C11.0411 13.9373 11.3609 13.9392 11.5578 13.7423L13.7423 11.5578C13.9392 11.3609 13.9373 11.0411 13.7381 10.8465L9.80004 7.00004L13.7381 3.15354C13.9373 2.95898 13.9392 2.63919 13.7423 2.4423L11.5578 0.257775Z"/>
    </symbol>
    <symbol id="eye" viewBox="0 0 16 12">
        <path d="M8.00013 12C12.7071 12 15.7441 6.716 15.8711 6.492C16.0421 6.188 16.0431 5.816 15.8721 5.512C15.7461 5.287 12.7311 0 8.00013 0C3.24513 0 0.251127 5.289 0.126127 5.514C-0.0428725 5.817 -0.0418725 6.186 0.128127 6.489C0.254128 6.713 3.26913 12 8.00013 12ZM8.00013 2C10.8391 2 13.0361 4.835 13.8181 6C13.0341 7.166 10.8371 10 8.00013 10C5.15913 10 2.96213 7.162 2.18113 5.999C2.95813 4.835 5.14613 2 8.00013 2Z" />
        <path d="M8.00013 8C9.1047 8 10.0001 7.10457 10.0001 6C10.0001 4.89543 9.1047 4 8.00013 4C6.89556 4 6.00013 4.89543 6.00013 6C6.00013 7.10457 6.89556 8 8.00013 8Z"/>
    </symbol>
 </defs>
</svg>
