<svg xmlns="http://www.w3.org/2000/svg">
 <defs>
    <symbol id="close" viewBox="0 0 14 14">
        <path d="M11.5578 0.257775C11.3609 0.0608863 11.0411 0.0627676 10.8465 0.261958L7.00004 4.20004L3.15354 0.261959C2.95898 0.0627681 2.63919 0.0608865 2.4423 0.257775L0.257775 2.4423C0.0608863 2.63919 0.0627675 2.95898 0.261958 3.15354L4.20004 7.00004L0.261959 10.8465C0.062768 11.0411 0.0608864 11.3609 0.257775 11.5578L2.4423 13.7423C2.63919 13.9392 2.95898 13.9373 3.15354 13.7381L7.00004 9.80004L10.8465 13.7381C11.0411 13.9373 11.3609 13.9392 11.5578 13.7423L13.7423 11.5578C13.9392 11.3609 13.9373 11.0411 13.7381 10.8465L9.80004 7.00004L13.7381 3.15354C13.9373 2.95898 13.9392 2.63919 13.7423 2.4423L11.5578 0.257775Z"/>
    </symbol>
    <symbol id="eye" viewBox="0 0 16 12">
        <path d="M8.00013 12C12.7071 12 15.7441 6.716 15.8711 6.492C16.0421 6.188 16.0431 5.816 15.8721 5.512C15.7461 5.287 12.7311 0 8.00013 0C3.24513 0 0.251127 5.289 0.126127 5.514C-0.0428725 5.817 -0.0418725 6.186 0.128127 6.489C0.254128 6.713 3.26913 12 8.00013 12ZM8.00013 2C10.8391 2 13.0361 4.835 13.8181 6C13.0341 7.166 10.8371 10 8.00013 10C5.15913 10 2.96213 7.162 2.18113 5.999C2.95813 4.835 5.14613 2 8.00013 2Z" />
        <path d="M8.00013 8C9.1047 8 10.0001 7.10457 10.0001 6C10.0001 4.89543 9.1047 4 8.00013 4C6.89556 4 6.00013 4.89543 6.00013 6C6.00013 7.10457 6.89556 8 8.00013 8Z"/>
    </symbol>
    <symbol id="mumble" viewBox="0 0 16 16">
        <path d="M9.79291 10H6.20709C5.76166 10 5.53857 10.5386 5.85357 10.8535L7.64642 12.6464C7.84173 12.8417 8.15826 12.8417 8.35357 12.6464L10.1464 10.8535C10.4614 10.5386 10.2383 10 9.79291 10Z" fill="white"/>
        <path d="M14.8074 5.37115C15.5281 4.82697 16 3.97394 16 3C16 1.34314 14.6569 4.79794e-06 13 4.79794e-06C12.2129 4.79794e-06 11.504 0.309085 10.9712 0.806405C9.10669 -0.270475 6.89553 -0.271705 5.02875 0.806465C4.49603 0.309145 3.78705 4.79794e-06 3 4.79794e-06C1.34314 4.79794e-06 0 1.34314 0 3C0 3.97394 0.47186 4.82697 1.19263 5.37115C0.0154001 7.86726 -0.6396 11.0175 0.93457 13.2979C2.17285 15.0908 4.5498 16 8 16C11.4502 16 13.8271 15.0908 15.0654 13.2979C16.6397 11.0174 15.9845 7.86707 14.8074 5.37115ZM13.4199 12.1611C12.5772 13.3809 10.7539 14 8 14C5.24609 14 3.42285 13.3809 2.58008 12.1611C1.5293 10.6387 2.16309 8.3252 2.63477 7.08203C3.08594 5.88965 4.80762 2 8 2C11.1924 2 12.9141 5.88965 13.3652 7.08203C13.8369 8.3252 14.4707 10.6387 13.4199 12.1611Z" fill="white"/>
        <path d="M6.66949 6.61743C6.55627 6.17469 6.28967 5.56726 5.5061 5.56726C4.42505 5.56726 3.51904 7.16309 3.50872 7.87347C3.49841 8.58392 3.98235 9.35607 4.57946 9.35607C5.17663 9.35607 5.70171 8.82067 6.23711 8.05884C6.77246 7.29695 6.78278 7.06012 6.66949 6.61743Z" fill="white"/>
        <path d="M10.4939 5.56726C9.71033 5.56726 9.44373 6.17469 9.33051 6.61743C9.21723 7.06012 9.22754 7.29693 9.76288 8.05884C10.2983 8.82068 10.8234 9.35608 11.4205 9.35608C12.0176 9.35608 12.5016 8.58392 12.4913 7.87348C12.481 7.16309 11.575 5.56726 10.4939 5.56726Z" fill="white"/>
    </symbol>
    <symbol id="upload" viewBox="0 0 14 14">
        <path d="M13 9C12.7348 9 12.4804 9.10536 12.2929 9.29289C12.1054 9.48043 12 9.73478 12 10V12H2V10C2 9.73478 1.89464 9.48043 1.70711 9.29289C1.51957 9.10536 1.26522 9 1 9C0.734784 9 0.48043 9.10536 0.292893 9.29289C0.105357 9.48043 0 9.73478 0 10V12C0 12.5304 0.210714 13.0391 0.585786 13.4142C0.960859 13.7893 1.46957 14 2 14H12C12.5304 14 13.0391 13.7893 13.4142 13.4142C13.7893 13.0391 14 12.5304 14 12V10C14 9.73478 13.8946 9.48043 13.7071 9.29289C13.5196 9.10536 13.2652 9 13 9Z" fill="white"/>
        <path d="M3.707 5.707L6 3.414V9C6 9.26522 6.10536 9.51957 6.29289 9.70711C6.48043 9.89464 6.73478 10 7 10C7.26522 10 7.51957 9.89464 7.70711 9.70711C7.89464 9.51957 8 9.26522 8 9V3.414L10.293 5.707C10.4816 5.88916 10.7342 5.98995 10.9964 5.98767C11.2586 5.9854 11.5094 5.88023 11.6948 5.69482C11.8802 5.50941 11.9854 5.2586 11.9877 4.9964C11.99 4.7342 11.8892 4.4816 11.707 4.293L7.707 0.293C7.51947 0.105529 7.26516 0.000213623 7 0.000213623C6.73484 0.000213623 6.48053 0.105529 6.293 0.293L2.293 4.293C2.11084 4.4816 2.01005 4.7342 2.01233 4.9964C2.0146 5.2586 2.11977 5.50941 2.30518 5.69482C2.49059 5.88023 2.7414 5.9854 3.0036 5.98767C3.2658 5.98995 3.5184 5.88916 3.707 5.707Z" fill="white"/>
    </symbol>
    <symbol id="send" viewBox="0 0 17 16">
        <path d="M16.2071 0.293003C15.9341 0.0210027 15.5271 -0.0719973 15.1641 0.0590027L1.16406 5.059C0.787056 5.193 0.526056 5.54 0.502056 5.939C0.478056 6.339 0.694056 6.714 1.05306 6.894L5.63906 9.186L11.5001 5L7.31306 10.862L9.60506 15.448C9.77606 15.787 10.1231 16 10.5001 16C10.5211 16 10.5411 15.999 10.5611 15.998C10.9611 15.974 11.3081 15.714 11.4431 15.336L16.4431 1.336C16.5721 0.973003 16.4801 0.566003 16.2071 0.293003Z" fill="white"/>
    </symbol>
 </defs>
</svg>
